<svg width="64" height="64" viewBox="0 0 64 64" fill="none" xmlns="http://www.w3.org/2000/svg">
<circle cx="32" cy="32" r="32" fill="#2563EB"/>
<g filter="url(#filter0_d_126_85)">
<path d="M26.532 48C24.628 48 22.948 47.72 21.492 47.16C20.064 46.6 18.944 45.69 18.132 44.43C17.348 43.142 16.956 41.448 16.956 39.348V32.586H13.638C13.33 32.586 13.064 32.488 12.84 32.292C12.644 32.068 12.546 31.802 12.546 31.494V27.252C12.546 26.944 12.644 26.692 12.84 26.496C13.064 26.272 13.33 26.16 13.638 26.16H16.956V19.272C16.956 18.964 17.054 18.712 17.25 18.516C17.474 18.292 17.74 18.18 18.048 18.18H24.138C24.446 18.18 24.698 18.292 24.894 18.516C25.118 18.712 25.23 18.964 25.23 19.272V26.16H30.522C30.83 26.16 31.082 26.272 31.278 26.496C31.502 26.692 31.614 26.944 31.614 27.252V31.494C31.614 31.802 31.502 32.068 31.278 32.292C31.082 32.488 30.83 32.586 30.522 32.586H25.23V38.634C25.23 39.446 25.398 40.09 25.734 40.566C26.07 41.014 26.602 41.238 27.33 41.238H30.858C31.166 41.238 31.418 41.35 31.614 41.574C31.838 41.77 31.95 42.022 31.95 42.33V46.908C31.95 47.216 31.838 47.482 31.614 47.706C31.418 47.902 31.166 48 30.858 48H26.532ZM36.696 48C36.416 48 36.164 47.902 35.94 47.706C35.716 47.482 35.604 47.216 35.604 46.908V19.692C35.604 19.384 35.716 19.132 35.94 18.936C36.164 18.712 36.416 18.6 36.696 18.6H43.836C44.144 18.6 44.396 18.712 44.592 18.936C44.816 19.132 44.928 19.384 44.928 19.692V46.908C44.928 47.216 44.816 47.482 44.592 47.706C44.396 47.902 44.144 48 43.836 48H36.696Z" fill="white"/>
</g>
<defs>
<filter id="filter0_d_126_85" x="8.5459" y="18.1802" width="40.3821" height="43.8198" filterUnits="userSpaceOnUse" color-interpolation-filters="sRGB">
<feFlood flood-opacity="0" result="BackgroundImageFix"/>
<feColorMatrix in="SourceAlpha" type="matrix" values="0 0 0 0 0 0 0 0 0 0 0 0 0 0 0 0 0 0 127 0" result="hardAlpha"/>
<feOffset dy="10"/>
<feGaussianBlur stdDeviation="2"/>
<feComposite in2="hardAlpha" operator="out"/>
<feColorMatrix type="matrix" values="0 0 0 0 0 0 0 0 0 0 0 0 0 0 0 0 0 0 0.25 0"/>
<feBlend mode="normal" in2="BackgroundImageFix" result="effect1_dropShadow_126_85"/>
<feBlend mode="normal" in="SourceGraphic" in2="effect1_dropShadow_126_85" result="shape"/>
</filter>
</defs>
</svg>